<svg width="88" height="36" viewBox="0 0 88 36" fill="none" xmlns="http://www.w3.org/2000/svg">
<path d="M0.686523 21.6278C0.686523 21.1226 1.09611 20.713 1.60136 20.713H84.3938C84.899 20.713 85.3086 21.1226 85.3086 21.6278V21.6278C85.3086 25.6698 82.0319 28.9465 77.9899 28.9465H8.0052C3.96321 28.9465 0.686523 25.6698 0.686523 21.6278V21.6278Z" fill="url(#paint0_linear)"/>
<path d="M44.027 35.3504C66.8263 35.3504 85.3088 31.357 85.3088 26.4308H2.74512C2.74512 31.357 21.2276 35.3504 44.027 35.3504Z" fill="#F1EDED"/>
<path d="M0 14.6121L1.05118 20.7782L24.9655 20.6045L25.5962 16.4359H3.36378L2.57539 14.6121H0Z" fill="#313131"/>
<path d="M25.1856 19.1482H0.792969L1.05582 21L24.9753 20.8051L25.1856 19.1482Z" fill="#313131"/>
<path fill-rule="evenodd" clip-rule="evenodd" d="M5.28832 11.7445C5.66418 11.7445 5.92877 12.1138 5.80784 12.4697L4.82068 15.3748C4.77993 15.4947 4.86711 15.6199 4.99184 15.6205L6.15894 15.6263C6.71316 15.629 7.16391 15.1805 7.16391 14.6263V14.037C7.16391 13.4848 7.61163 13.037 8.16391 13.037H9.07647C9.62876 13.037 10.0765 13.4848 10.0765 14.0371V14.831C10.0765 15.2817 10.4406 15.6476 10.8912 15.6498V15.6498C11.345 15.6521 11.7141 15.2848 11.7141 14.831V14.037C11.7141 13.4848 12.1618 13.037 12.7141 13.037H13.6267C14.179 13.037 14.6267 13.4848 14.6267 14.0371V14.6734C14.6267 15.2237 15.0714 15.6706 15.6217 15.6734L18.1733 15.6861C18.7275 15.6888 19.1783 15.2403 19.1783 14.6861V14.037C19.1783 13.4848 19.626 13.037 20.1783 13.037H21.0909C21.6431 13.037 22.0909 13.4848 22.0909 14.037V14.7105C22.0909 15.2608 22.5355 15.7078 23.0859 15.7105L23.354 15.7118C23.4558 15.7123 23.5383 15.6277 23.5369 15.5241L23.4976 12.563C23.4916 12.1127 23.855 11.7445 24.3053 11.7445V11.7445C24.4059 11.7445 24.4874 11.6616 24.4874 11.5593V10.9074C24.4874 10.8051 24.4059 10.7222 24.3053 10.7222H5.28832C5.18779 10.7222 5.10629 10.8051 5.10629 10.9074V11.5593C5.10629 11.6616 5.18779 11.7445 5.28832 11.7445V11.7445Z" fill="#313131"/>
<path fill-rule="evenodd" clip-rule="evenodd" d="M8.25586 9.01806V6.25928C8.25586 5.70699 8.70357 5.25928 9.25586 5.25928H12.3534C12.7806 5.25928 13.1607 5.53071 13.2993 5.93484L13.8296 7.48098C13.9682 7.88511 14.3482 8.15654 14.7755 8.15654H18.789C19.3413 8.15654 19.789 7.70883 19.789 7.15654V6.59576C19.789 6.04348 20.2367 5.59576 20.789 5.59576H21.2725C21.8248 5.59576 22.2725 6.04348 22.2725 6.59576V9.06977C22.2725 9.62374 21.8222 10.0721 21.2682 10.0698L9.25156 10.0181C8.70096 10.0157 8.25586 9.56867 8.25586 9.01806ZM10.53 6.3704C9.97774 6.3704 9.53002 6.81811 9.53002 7.3704V7.7778C9.53002 8.33008 9.97774 8.7778 10.53 8.7778H10.8965C11.4488 8.7778 11.8965 8.33008 11.8965 7.7778V7.3704C11.8965 6.81811 11.4488 6.3704 10.8965 6.3704H10.53Z" fill="#313131"/>
<path d="M9.53027 3.51403V4.5185H11.8967V3.73562C11.8967 3.38558 11.7137 3.06103 11.4142 2.8799L11.0477 2.65831C10.3813 2.25531 9.53027 2.73519 9.53027 3.51403Z" fill="#313131"/>
<path d="M11.8967 3.59259L9.53027 2.08654C9.53027 1.62451 10.0471 1.35065 10.4294 1.61006L11.4582 2.30813C11.7325 2.49424 11.8967 2.80416 11.8967 3.13563V3.59259Z" fill="#313131"/>
<path d="M7.88379 4.97927V5.25604C7.88379 5.41122 8.00959 5.53703 8.16477 5.53703H10.7745H12.7922C13.1002 5.53703 13.3499 5.28731 13.3499 4.97927C13.3499 4.67123 13.1002 4.42151 12.7922 4.42151H8.44155C8.13351 4.42151 7.88379 4.67123 7.88379 4.97927Z" fill="#313131"/>
<path d="M45.9952 12.3034C45.9734 11.7358 45.8643 11.2417 45.668 10.8213C45.4935 10.3798 45.2535 10.0223 44.9482 9.74904C44.6428 9.45471 44.2938 9.24447 43.9011 9.11833C43.5085 8.97116 43.105 8.89758 42.6905 8.89758C41.8398 8.89758 41.0982 9.20242 40.4656 9.81211C39.8548 10.4008 39.5058 11.2312 39.4186 12.3034H45.9952ZM39.2877 14.8893C39.3531 16.0667 39.7022 17.0022 40.3347 17.696C40.9891 18.3898 41.8398 18.7367 42.8868 18.7367C43.5849 18.7367 44.1956 18.5895 44.7191 18.2952C45.2645 17.9798 45.6135 17.5488 45.7662 17.0022H50.1506C49.6489 18.6 48.7763 19.8299 47.533 20.6919C46.2897 21.5539 44.8064 21.9849 43.0832 21.9849C37.7172 21.9849 35.0342 19.1677 35.0342 13.5333C35.0342 12.335 35.2087 11.2522 35.5577 10.2851C35.9067 9.31805 36.4084 8.48762 37.0628 7.79383C37.739 7.10005 38.557 6.57446 39.5167 6.21705C40.4765 5.83863 41.5781 5.64941 42.8214 5.64941C45.3081 5.64941 47.184 6.41678 48.4491 7.95151C49.7361 9.48624 50.3796 11.7989 50.3796 14.8893H39.2877Z" fill="#313131"/>
<path d="M52.3594 21.9849V6.06993H56.1736V7.97843C56.5071 7.4393 56.851 7.01879 57.2053 6.71688C57.5805 6.41497 57.9556 6.18854 58.3308 6.03758C58.7268 5.86506 59.1228 5.75724 59.5188 5.71411C59.9148 5.67098 60.3213 5.64941 60.7381 5.64941H61.2696V9.95162C60.8944 9.88692 60.5193 9.85458 60.1441 9.85458C57.6638 9.85458 56.4237 11.1377 56.4237 13.7039V21.9849H52.3594Z" fill="#313131"/>
<path d="M62.7549 21.9849V6.06993H66.781V7.97843C67.133 7.4393 67.496 7.01879 67.87 6.71688C68.266 6.41497 68.662 6.18854 69.0581 6.03758C69.4761 5.86506 69.8941 5.75724 70.3121 5.71411C70.7301 5.67098 71.1591 5.64941 71.5991 5.64941H72.1601V9.95162C71.7641 9.88692 71.3681 9.85458 70.9721 9.85458C68.354 9.85458 67.045 11.1377 67.045 13.7039V21.9849H62.7549Z" fill="#313131"/>
<path d="M83.6419 19.8471C83.329 20.5531 82.7592 21.1093 81.9323 21.5158C81.1277 21.9009 80.2115 22.0934 79.1834 22.0934C78.3119 22.0934 77.5073 21.9651 76.7698 21.7083C76.0323 21.4302 75.3954 21.0451 74.8591 20.5531C74.3227 20.0396 73.8981 19.4406 73.5852 18.756C73.2947 18.05 73.1494 17.2585 73.1494 16.3813V6.14444H77.5073V15.7716C77.5073 17.7398 78.4348 18.7239 80.2897 18.7239C81.2953 18.7239 82.0999 18.4458 82.7033 17.8896C83.329 17.3333 83.6419 16.6273 83.6419 15.7716V6.14444H87.9998V22.3502C87.9998 23.4626 87.7987 24.4574 87.3964 25.3346C87.0165 26.2117 86.4801 26.9498 85.7873 27.5488C85.1169 28.1478 84.3124 28.6078 83.3737 28.9287C82.4575 29.2496 81.4741 29.4101 80.4238 29.4101C77.9878 29.4101 76.1664 28.8217 74.9596 27.6451C73.7528 26.4684 73.1494 24.4015 73.1494 22.3477H77.2056C77.2056 23.289 77.485 24.4788 78.0437 25.0137C78.6247 25.5485 79.4851 25.8159 80.6249 25.8159C81.0272 25.8159 81.4071 25.7304 81.7647 25.5592C82.1222 25.4094 82.4351 25.1848 82.7033 24.8853C82.9938 24.6072 83.2173 24.2542 83.3737 23.8263C83.5525 23.3984 83.6419 22.9278 83.6419 22.4143V19.8471Z" fill="#313131"/>
<path d="M28.5321 21.9849V9.02024H26.123V6.03837H28.5321C28.5321 2.14898 30.8312 0.204285 35.4293 0.204285V3.6075C34.8793 3.6075 34.4283 3.65072 34.0763 3.73715C33.7463 3.80197 33.4822 3.93162 33.2842 4.12609C33.0862 4.32056 32.9432 4.57985 32.8552 4.90397C32.7892 5.20647 32.7562 5.58461 32.7562 6.03837H35.5283V9.02024H32.7562V21.9849H28.5321Z" fill="#313131"/>
<defs>
<linearGradient id="paint0_linear" x1="-11.8746" y1="23.6701" x2="-6.4335" y2="47.7259" gradientUnits="userSpaceOnUse">
<stop offset="0.0833333" stop-color="#D982F8"/>
<stop offset="1" stop-color="#8444E6"/>
</linearGradient>
</defs>
</svg>
